<?xml version="1.0" encoding="utf-8"?>
<!-- Generator: Adobe Illustrator 22.0.1, SVG Export Plug-In . SVG Version: 6.00 Build 0)  -->
<svg version="1.1" id="Layer_1" xmlns="http://www.w3.org/2000/svg" xmlns:xlink="http://www.w3.org/1999/xlink" x="0px" y="0px"
	 viewBox="0 0 1920 1080" style="enable-background:new 0 0 1920 1080;" xml:space="preserve">
<style type="text/css">
	.st0{fill:#F9F9F9;}
</style>
<g>
	<path class="st0" d="M1263.5,610.7c30.9,0,61.7,0,92.6,0c29,0,57.5,0,86.4,0c2.8-22.8,4.3-46.1,4.3-69.8
		c0-87.4-20.9-169.5-57.5-242.2c-1.9,0.9-3.8,1.9-6.2,2.8c-7.1,2.8-14.2,7.1-21.4,10.4c-8.5,3.3-16.1,8.5-24.7,11.9
		c-7.1,2.8-13.8,6.6-20.4,10c-9.5,4.3-18.5,9.5-28,13.3c-6.6,2.8-12.8,6.6-19.5,9.5c-9,3.8-17.6,8.5-26.6,12.3
		c-5.2,1.9-10,4.7-14.7,7.1c27.1,50.3,42.3,107.8,42.3,169C1269.7,567.5,1267.3,589.3,1263.5,610.7z"/>
	<path class="st0" d="M1097.4,851.9c42.3,0,84,0,126.3,0c41.3,0,82.6,0,123.9,0c39.9-56,69.3-120.1,85.5-189c-61.3,0-122,0-183.3,0
		C1222.2,742.2,1167.6,808.7,1097.4,851.9z"/>
</g>
<g>
	<path class="st0" d="M1562.7,1074.1c-4.3-3.8-9-6.6-13.3-10.4c-6.6-5.7-14.2-10.9-20.9-16.6c-2.4-1.9-4.3-3.8-6.6-5.2
		c-4.7-2.8-8.5-6.6-12.8-10c-4.7-3.8-9.5-7.6-14.2-11.4c-6.2-4.7-12.3-9.5-18-14.2c-6.2-5.2-12.8-9.5-19-15.2
		c-1.9-1.9-3.8-3.3-6.2-5.2c-6.6-4.3-12.3-9.5-18.5-14.2c-4.7-3.3-9-7.1-13.3-10.4c-5.7-4.7-12.3-9-18.5-14.2
		c-7.1-5.7-14.2-11.4-21.4-17.1c-7.1-5.7-14.2-11.4-21.8-17.1c-3.3-2.4-6.6-5.2-10-8.1H909.3h-2.8l0,0
		C709,903.2,548.9,742.7,548.9,544.7c0-198.9,161.4-359.9,359.9-359.9c117.8,0,222.7,56.5,288.2,144.3c6.6-3.3,13.8-7.1,20.9-10
		c8.1-3.3,15.7-8.1,24.2-11.4c7.1-2.8,14.2-7.1,21.4-10c8.5-3.8,16.6-8.5,25.2-11.9c6.6-2.8,13.3-6.6,19.9-9.5
		c9-3.8,17.6-9,26.6-12.8c7.1-2.8,13.8-7.1,20.9-10c1.9-0.5,3.3-1.4,4.7-2.4C1265.4,103.1,1098.8,4.8,909.3,4.8
		C613,4.8,372.8,245.1,372.8,541.3s240.3,536.5,536.5,536.5H1566C1565.5,1076.5,1564.1,1075,1562.7,1074.1z"/>
	<path class="st0" d="M909.3,905.1c-0.9,0-1.9,0-2.8,0l0,0H909.3z"/>
</g>
</svg>
