<?xml version="1.0" encoding="utf-8"?>
<!-- Generator: Adobe Illustrator 22.0.1, SVG Export Plug-In . SVG Version: 6.00 Build 0)  -->
<svg version="1.1" id="Layer_1" xmlns="http://www.w3.org/2000/svg" xmlns:xlink="http://www.w3.org/1999/xlink" x="0px" y="0px"
	 viewBox="0 0 1920 1080" style="enable-background:new 0 0 1920 1080;" xml:space="preserve">
<style type="text/css">
	.st0{fill:#B2B2B2;}
</style>
<g>
	<path d="M1021.4,554.2c6.5,0,13,0,19.5,0c6.1,0,12.1,0,18.2,0c0.6-4.8,0.9-9.7,0.9-14.7c0-18.4-4.4-35.7-12.1-51
		c-0.4,0.2-0.8,0.4-1.3,0.6c-1.5,0.6-3,1.5-4.5,2.2c-1.8,0.7-3.4,1.8-5.2,2.5c-1.5,0.6-2.9,1.4-4.3,2.1c-2,0.9-3.9,2-5.9,2.8
		c-1.4,0.6-2.7,1.4-4.1,2c-1.9,0.8-3.7,1.8-5.6,2.6c-1.1,0.4-2.1,1-3.1,1.5c5.7,10.6,8.9,22.7,8.9,35.6
		C1022.7,545.1,1022.2,549.7,1021.4,554.2z"/>
	<path d="M986.4,605c8.9,0,17.7,0,26.6,0c8.7,0,17.4,0,26.1,0c8.4-11.8,14.6-25.3,18-39.8c-12.9,0-25.7,0-38.6,0
		C1012.7,581.9,1001.2,595.9,986.4,605z"/>
</g>
<g>
	<path d="M1084.4,651.8c-0.9-0.8-1.9-1.4-2.8-2.2c-1.4-1.2-3-2.3-4.4-3.5c-0.5-0.4-0.9-0.8-1.4-1.1c-1-0.6-1.8-1.4-2.7-2.1
		c-1-0.8-2-1.6-3-2.4c-1.3-1-2.6-2-3.8-3c-1.3-1.1-2.7-2-4-3.2c-0.4-0.4-0.8-0.7-1.3-1.1c-1.4-0.9-2.6-2-3.9-3
		c-1-0.7-1.9-1.5-2.8-2.2c-1.2-1-2.6-1.9-3.9-3c-1.5-1.2-3-2.4-4.5-3.6c-1.5-1.2-3-2.4-4.6-3.6c-0.7-0.5-1.4-1.1-2.1-1.7h-92.4h-0.6
		v0c-41.6-0.3-75.3-34.1-75.3-75.8c0-41.9,34-75.8,75.8-75.8c24.8,0,46.9,11.9,60.7,30.4c1.4-0.7,2.9-1.5,4.4-2.1
		c1.7-0.7,3.3-1.7,5.1-2.4c1.5-0.6,3-1.5,4.5-2.1c1.8-0.8,3.5-1.8,5.3-2.5c1.4-0.6,2.8-1.4,4.2-2c1.9-0.8,3.7-1.9,5.6-2.7
		c1.5-0.6,2.9-1.5,4.4-2.1c0.4-0.1,0.7-0.3,1-0.5c-20.1-31.2-55.2-51.9-95.1-51.9c-62.4,0-113,50.6-113,113s50.6,113,113,113h138.3
		C1085,652.3,1084.7,652,1084.4,651.8z"/>
	<path class="st0" d="M946.8,616.2c-0.2,0-0.4,0-0.6,0v0H946.8z"/>
</g>
</svg>
