<?xml version="1.0" encoding="utf-8"?>
<!-- Generated by IcoMoon.io -->
<!DOCTYPE svg PUBLIC "-//W3C//DTD SVG 1.1//EN" "http://www.w3.org/Graphics/SVG/1.1/DTD/svg11.dtd">
<svg version="1.1" xmlns="http://www.w3.org/2000/svg" xmlns:xlink="http://www.w3.org/1999/xlink" width="512" height="512" viewBox="0 0 512 512">
<g>
</g>
	<path d="M265.36 134.82c0-3.205-2.601-5.775-5.745-5.775h-10.619c-3.205 0-6.574-2.489-7.465-5.561l-14.439-33.669c-1.526-2.775-1.024-6.85 1.219-9.114l7.148-7.168c2.304-2.263 2.304-5.95 0-8.192l-17.244-17.285c-2.243-2.253-5.909-2.253-8.202 0l-7.772 7.824c-2.253 2.253-6.421 2.846-9.206 1.403l-29.317-11.735c-3.082-0.83-5.571-4.188-5.571-7.352v-10.864c0-3.175-2.621-5.755-5.775-5.755h-24.453c-3.205 0-5.785 2.581-5.785 5.755v10.864c0 3.164-2.498 6.533-5.499 7.465l-34.038 14.562c-2.693 1.587-6.758 1.054-9.042-1.178l-7.629-7.618c-2.253-2.253-5.909-2.253-8.162 0l-17.296 17.285c-2.233 2.263-2.233 5.929 0 8.162l8.305 8.325c2.273 2.284 2.888 6.4 1.403 9.226l-11.53 29.020c-0.85 3.103-4.157 5.591-7.363 5.591h-11.54c-3.154 0-5.745 2.57-5.745 5.775v24.412c0 3.205 2.591 5.837 5.745 5.837h11.541c3.205 0 6.553 2.447 7.465 5.53l14.182 33.423c1.628 2.744 1.065 6.83-1.136 9.093l-7.936 7.905c-2.242 2.232-2.242 5.898 0 8.151l17.296 17.285c2.242 2.294 5.939 2.294 8.151 0l8.499-8.428c2.233-2.253 6.329-2.857 9.175-1.362l29.655 11.838c3.001 0.881 5.499 4.208 5.499 7.373v11.315c0 3.175 2.591 5.786 5.785 5.786h24.453c3.164 0 5.775-2.622 5.775-5.786v-11.315c0-3.174 2.468-6.492 5.571-7.434l33.147-14.070c2.765-1.566 6.789-1.004 9.072 1.219l7.486 7.526c2.263 2.222 5.929 2.222 8.192 0l17.285-17.305c2.274-2.222 2.274-5.939 0-8.172l-7.987-7.946c-2.212-2.253-2.796-6.38-1.31-9.175l12.012-29.911c0.829-3.082 4.188-5.53 7.404-5.581h10.619c3.144 0 5.745-2.581 5.745-5.786v-24.412zM139.704 188.375c-22.743 0-41.103-18.411-41.103-41.113 0-22.743 18.361-41.124 41.103-41.124 22.681 0 41.083 18.381 41.083 41.124 0 22.713-18.401 41.113-41.083 41.113z" fill="#000000" />
	<path d="M486.82 263.516c-1.403-3.83-5.642-5.786-9.462-4.393l-12.759 4.639c-3.861 1.403-8.96-0.092-11.377-3.379l-32.144-34.161c-3.082-2.642-4.26-7.803-2.539-11.5l5.478-11.766c1.721-3.717 0.103-8.131-3.584-9.831l-28.365-13.23c-3.697-1.71-8.1-0.102-9.861 3.614l-5.939 12.831c-1.741 3.707-6.482 6.267-10.476 5.714l-40.397-1.198c-4.055 0.286-8.54-2.601-9.923-6.41l-4.762-13.066c-1.403-3.81-5.683-5.775-9.482-4.403l-29.419 10.742c-3.799 1.393-5.796 5.662-4.423 9.472l4.782 13.066c1.382 3.789-0.144 8.94-3.399 11.376l-34.447 32.43c-2.581 3.113-7.71 4.239-11.407 2.57l-12.503-5.837c-3.696-1.71-8.141-0.113-9.831 3.605l-13.209 28.375c-1.741 3.697-0.123 8.12 3.605 9.831l13.619 6.37c3.748 1.7 6.287 6.38 5.765 10.455l-1.137 39.987c0.348 4.065-2.56 8.54-6.39 9.913l-13.865 5.058c-3.83 1.392-5.775 5.663-4.382 9.502l10.721 29.358c1.382 3.861 5.653 5.868 9.462 4.475l13.865-5.058c3.84-1.403 8.96 0.082 11.407 3.369l31.724 33.976c3.164 2.591 4.281 7.731 2.622 11.408l-6.082 13.015c-1.71 3.687-0.113 8.11 3.574 9.81l28.406 13.159c3.676 1.762 8.1 0.174 9.779-3.553l6.502-13.865c1.741-3.707 6.38-6.226 10.425-5.683l40.858 1.209c4.045-0.266 8.499 2.652 9.882 6.462l4.976 13.609c1.403 3.799 5.683 5.776 9.462 4.393l29.399-10.731c3.84-1.382 5.817-5.663 4.423-9.502l-4.956-13.599c-1.382-3.799 0.144-8.899 3.461-11.346l33.659-31.467c2.663-3.082 7.741-4.209 11.459-2.529l12.278 5.755c3.697 1.68 8.141 0.103 9.841-3.584l13.2-28.396c1.762-3.697 0.123-8.12-3.584-9.81l-13.097-6.072c-3.635-1.762-6.185-6.43-5.642-10.455l1.321-41.226c-0.338-4.055 2.642-8.499 6.482-9.954l12.759-4.659c3.779-1.382 5.776-5.652 4.382-9.472l-10.731-29.409zM359.219 383.089c-27.32 9.984-57.498-4.096-67.481-31.375-9.964-27.32 4.075-57.498 31.375-67.471 27.3-9.964 57.498 4.075 67.481 31.365 9.984 27.3-4.096 57.538-31.375 67.481z" fill="#000000" />
</svg>
