<?xml version="1.0" encoding="utf-8"?>
<!-- Generator: Adobe Illustrator 16.0.0, SVG Export Plug-In . SVG Version: 6.00 Build 0)  -->
<!DOCTYPE svg PUBLIC "-//W3C//DTD SVG 1.1//EN" "http://www.w3.org/Graphics/SVG/1.1/DTD/svg11.dtd">
<svg version="1.1" id="Layer_1" xmlns="http://www.w3.org/2000/svg" xmlns:xlink="http://www.w3.org/1999/xlink" x="0px" y="0px"
	 width="512px" height="512px" viewBox="0 0 512 512" enable-background="new 0 0 512 512" xml:space="preserve">
<g>
	<path d="M338,356h-26c-28.719,0-52-23.281-52-52v-3.281c23.563-27.781,39-69.797,39-100.719c0-50.266-13-104-91-104
		s-91,53.734-91,104c0,30.922,15.453,72.906,39,100.688V304c0,28.719-23.281,52-52,52H78c0,0-47.125,13-78,78v52
		c0,14.375,11.641,26,26,26h364c14.375,0,26-11.625,26-26v-52C385.125,369,338,356,338,356z"/>
	<path d="M446,220h-22c-24.313,0-44-19.703-44-44v-2.781c19.938-23.5,33-59.047,33-85.219c0-42.531-11-88-77-88
		c-57.906,0-73.469,35-76.406,72.313C298.375,86.406,331,121.516,331,200c0,35.5-14.938,78.188-37.969,110.344
		C295.688,318.281,303.188,324,312,324h26h4.344l4.156,1.156c3.594,0.969,23.594,7.563,46.688,26.844H490c12.156,0,22-9.844,22-22
		v-44C485.875,231,446,220,446,220z"/>
</g>
</svg>
